<svg width="71" height="33" viewBox="0 0 143 66" fill="none" xmlns="http://www.w3.org/2000/svg"><style>    .footer__left{        fill: rgb(125, 125, 125);     }  </style><g clip-path="url(#clip0_432_24)"><path d="M77.3818 48.7356C85.8237 48.7415 94.2686 48.7415 102.71 48.7356C104.877 48.7356 105.3 48.3283 105.3 46.2182C105.306 39.0292 105.3 31.8372 105.3 24.6481C105.3 17.4591 105.303 10.0369 105.3 2.72976C105.3 0.619675 104.875 0.209462 102.713 0.209462C94.2716 0.206511 85.8267 0.20356 77.3848 0.209462C75.3279 0.209462 74.8844 0.637382 74.8814 2.63828C74.8755 17.1935 74.8755 31.7457 74.8814 46.3009C74.8814 48.3077 75.3249 48.7326 77.3789 48.7326L77.3818 48.7356ZM88.4015 13.776C88.4015 13.2891 88.8004 12.8936 89.2916 12.8936H90.893C91.024 12.8936 91.146 12.9231 91.2562 12.9733C91.3931 13.0234 91.5092 13.1061 91.5985 13.2477C91.7116 13.3953 91.7801 13.5783 91.7801 13.776V35.172C91.7801 35.3697 91.7116 35.5527 91.6015 35.6973C91.5122 35.839 91.3961 35.9216 91.2621 35.9718C91.149 36.0219 91.027 36.0544 90.893 36.0544H89.2916C88.8004 36.0544 88.4015 35.6589 88.4015 35.172V13.776Z" fill="#FF0214" /><path d="M66.2759 17.9255C62.174 18.0052 58.0692 17.893 53.9673 17.9904C52.6188 18.0229 52.4373 17.4976 52.5057 16.385C52.5653 15.3816 52.3569 14.5464 53.9673 14.5966C58.1823 14.7264 62.4062 14.6113 66.6271 14.6615C67.6571 14.6733 68.0619 14.4608 68.0381 13.3364C67.9637 9.68581 67.9904 6.03226 68.0202 2.38166C68.0321 0.832296 67.3058 0.197794 65.7669 0.200745C57.1494 0.221403 48.5318 0.227305 39.9143 0.197794C38.2891 0.191891 37.5687 0.841149 37.5747 2.47315C37.6015 11.5155 37.6104 20.5609 37.5598 29.6033C37.5538 30.7926 37.9616 31.0316 39.06 31.0169C43.281 30.9608 47.5019 31.067 51.7199 30.9549C53.2201 30.9165 53.0832 31.6868 53.0832 32.6518C53.0832 33.6198 53.2142 34.3842 51.7169 34.3458C47.4989 34.2366 43.275 34.3399 39.0571 34.2838C37.9557 34.2691 37.533 34.5111 37.5598 35.7004C37.6402 39.292 37.6163 42.8894 37.5747 46.481C37.5568 48.116 38.295 48.7564 39.9203 48.7505C48.4783 48.721 57.0362 48.7416 65.5972 48.7328C67.5261 48.7328 68.0024 48.2694 68.0083 46.3895C68.0232 41.9244 68.0113 37.4622 68.0113 32.9971C68.0113 28.532 67.9458 24.0669 68.05 19.6076C68.0827 18.1822 67.6035 17.8989 66.2789 17.9225L66.2759 17.9255Z" fill="#FF0214" /><path d="M28.981 17.9255C24.8791 18.0052 20.7743 17.8931 16.6724 17.9905C15.324 18.0229 15.1424 17.4976 15.2109 16.385C15.2704 15.3816 15.062 14.5464 16.6724 14.5966C20.8904 14.7265 25.1113 14.6114 29.3323 14.6615C30.3622 14.6733 30.767 14.4609 30.7432 13.3365C30.6688 9.68586 30.6956 6.03231 30.7253 2.38171C30.7373 0.832345 30.0109 0.197843 28.472 0.200794C19.8545 0.221453 11.237 0.227355 2.61947 0.197843C0.991222 0.18899 0.270864 0.838247 0.276817 2.47025C0.303607 11.5126 0.312537 20.558 0.261934 29.6004C0.25598 30.7897 0.663786 31.0287 1.76218 31.014C5.98313 30.9579 10.2041 31.0641 14.422 30.952C15.9223 30.9136 15.7854 31.6839 15.7854 32.6489C15.7854 33.6169 15.9163 34.3813 14.4191 34.3429C10.2011 34.2337 5.97717 34.337 1.75921 34.2809C0.657833 34.2662 0.235144 34.5082 0.261934 35.6975C0.342304 39.2891 0.318491 42.8865 0.276817 46.4781C0.258957 48.1131 0.997175 48.7535 2.62245 48.7476C11.1804 48.7181 19.7384 48.7387 28.2993 48.7299C30.2282 48.7299 30.7045 48.2665 30.7105 46.3866C30.7253 41.9215 30.7134 37.4593 30.7134 32.9942C30.7134 28.5291 30.6479 24.064 30.7521 19.6047C30.7849 18.1793 30.3056 17.896 28.981 17.9196V17.9255Z" fill="#FF0214" /><path d="M142.81 30.1167C142.816 26.3775 142.768 22.6355 142.839 18.8993C142.86 17.7926 142.369 17.7277 141.488 17.7336C137.27 17.766 133.049 17.7218 128.828 17.769C127.765 17.7808 127.268 17.6067 127.283 16.379C127.298 15.228 127.631 14.9181 128.774 14.9329C133.052 14.9949 137.332 14.9152 141.61 14.986C142.747 15.0037 142.967 14.623 142.941 13.599C142.851 9.89229 142.845 6.18562 142.813 2.47895C142.795 0.448546 142.387 0.0117725 140.404 0.00882129C131.73 0.00291895 123.056 0.00291895 114.382 0.00882129C112.391 0.00882129 111.971 0.442643 111.968 2.4701C111.965 9.77425 111.968 17.0754 111.968 24.3796C111.968 31.6837 111.968 39.1 111.968 46.4603C111.968 48.5467 112.382 48.9451 114.534 48.9481C117.993 48.951 121.449 48.954 124.908 48.9481C126.908 48.9451 127.325 48.5202 127.328 46.4927C127.334 42.4939 127.426 38.4921 127.283 34.4962C127.224 32.8199 127.81 32.5189 129.331 32.5632C132.963 32.6665 136.597 32.5986 140.232 32.5957C142.402 32.5957 142.807 32.2061 142.81 30.1196V30.1167Z" fill="#FF0214" /><path d="M91.2622 35.9717C91.3991 35.9216 91.5152 35.8389 91.6016 35.6973C91.5123 35.8153 91.3962 35.9098 91.2622 35.9717Z" fill="#FF0214" /><path d="M91.6016 13.2476C91.5123 13.1059 91.3962 13.0233 91.2593 12.9731C91.3962 13.0351 91.5123 13.1296 91.6016 13.2476Z" fill="#FF0214" /><path d="M138.776 48.2899V46.0057H139.711V45.6987H137.496V46.0057H138.431V48.2899H138.776Z" fill="#FF0214" /><path d="M142.387 48.2899V45.6987H141.905L141.232 47.1419L140.535 45.6987H140.062V48.2899H140.386V46.0588L141.107 47.5757H141.315L142.042 46.0588V48.2899H142.387Z" fill="#FF0214" /><path d="M6.71833 60.2128C6.28969 60.018 5.49492 59.7937 4.33996 59.534C3.18501 59.2743 2.4706 59.0205 2.19675 58.7756C1.91694 58.5277 1.78001 58.2148 1.78001 57.8312C1.78001 57.3915 1.97647 57.0137 2.3694 56.7009C2.76232 56.3881 3.38742 56.2317 4.24768 56.2317C5.10795 56.2317 5.69733 56.4028 6.12002 56.7481C6.54271 57.0904 6.78977 57.601 6.86419 58.2739L8.22751 58.1735C8.2037 57.5479 8.02808 56.9901 7.70064 56.4973C7.37321 56.0044 6.90587 55.6296 6.29862 55.3758C5.69138 55.122 4.98888 54.9951 4.1941 54.9951C3.47077 54.9951 2.8159 55.1161 2.22354 55.3581C1.63415 55.6001 1.18467 55.9542 0.875099 56.4205C0.5685 56.8868 0.413712 57.3915 0.413712 57.9286C0.413712 58.4185 0.538733 58.8582 0.791752 59.2537C1.04179 59.6491 1.42579 59.9796 1.93778 60.2453C2.33368 60.4548 3.02427 60.6761 4.00955 60.9093C4.99483 61.1454 5.63184 61.3165 5.92058 61.4287C6.37006 61.5969 6.69154 61.8064 6.88801 62.0573C7.08447 62.3081 7.17972 62.5973 7.17972 62.9338C7.17972 63.2702 7.07851 63.5683 6.8761 63.8457C6.67368 64.1231 6.36411 64.3444 5.95035 64.5038C5.53659 64.6632 5.05734 64.7428 4.51559 64.7428C3.90537 64.7428 3.35468 64.6366 2.8665 64.4271C2.37833 64.2175 2.01815 63.9401 1.78596 63.5978C1.55378 63.2554 1.40495 62.8187 1.34244 62.2875L0.00292969 62.4026C0.0237665 63.1138 0.220228 63.7512 0.592314 64.3149C0.964399 64.8786 1.48234 65.3006 2.13721 65.581C2.79506 65.8613 3.6077 66.003 4.58107 66.003C5.34906 66.003 6.03667 65.8643 6.64987 65.5869C7.26307 65.3095 7.73338 64.9199 8.06082 64.4182C8.38826 63.9165 8.55197 63.3823 8.55197 62.8157C8.55197 62.2491 8.40314 61.7385 8.10547 61.3018C7.8078 60.862 7.34642 60.502 6.72131 60.2157L6.71833 60.2128Z" fill="#FF0214" /><path d="M16.5088 62.5798C16.2498 63.3294 16.0593 63.899 15.9372 64.2856C15.8301 63.9373 15.6574 63.412 15.4252 62.7097L12.8832 55.1724H10.7429V65.8202H12.1122V56.7571L15.2169 65.8202H16.4998L19.6194 56.9106V65.8202H20.9887V55.1724H19.0776L16.5058 62.5798H16.5088Z" fill="#FF0214" /><path d="M26.5312 55.1724L22.4084 65.8202H23.9176L25.0964 62.5946H29.5852L30.8384 65.8202H32.4577L28.0642 55.1724H26.5341H26.5312ZM25.5072 61.4466L26.6859 58.3242C26.936 57.6514 27.1265 56.9726 27.2634 56.2909C27.4301 56.8663 27.6831 57.6041 28.0255 58.4983L29.1477 61.4466H25.5072Z" fill="#FF0214" /><path d="M40.331 61.5056C40.1346 61.3315 39.8488 61.1544 39.4737 60.9744C40.5037 60.8327 41.2657 60.5051 41.7598 59.9857C42.254 59.4663 42.501 58.8318 42.501 58.0763C42.501 57.489 42.3522 56.9549 42.0545 56.4709C41.7569 55.9869 41.358 55.6505 40.8609 55.4586C40.3638 55.2668 39.6345 55.1724 38.679 55.1724H33.9163V65.8202H35.3361V61.0924H36.9852C37.3514 61.0924 37.6163 61.1101 37.777 61.1426C37.9973 61.1957 38.2116 61.2901 38.4259 61.4259C38.6373 61.5617 38.8784 61.7977 39.1463 62.1371C39.4142 62.4765 39.7565 62.9664 40.1703 63.6039L41.5902 65.8202H43.3762L41.5068 62.9221C41.1347 62.3555 40.7418 61.8833 40.328 61.5056H40.331ZM38.3902 59.8706H35.3361V56.3469H38.7355C39.5303 56.3469 40.1137 56.5092 40.4828 56.8339C40.8519 57.1585 41.0365 57.5717 41.0365 58.0763C41.0365 58.4187 40.9412 58.7374 40.7507 59.0325C40.5602 59.3247 40.2834 59.5371 39.9143 59.6729C39.5481 59.8057 39.0391 59.8736 38.3902 59.8736V59.8706Z" fill="#FF0214" /><path d="M43.9478 56.4296H47.487V65.8172H48.9069V56.4296H52.4611V55.1724H43.9478V56.4296Z" fill="#FF0214" /><path d="M64.6478 60.2128C64.2191 60.018 63.4244 59.7937 62.2694 59.534C61.1145 59.2743 60.4 59.0205 60.1262 58.7756C59.8464 58.5277 59.7095 58.2148 59.7095 57.8312C59.7095 57.3915 59.9059 57.0137 60.2988 56.7009C60.6918 56.3881 61.3169 56.2317 62.1771 56.2317C63.0374 56.2317 63.6268 56.4028 64.0495 56.7481C64.4722 57.0904 64.7192 57.601 64.7936 58.2739L66.157 58.1735C66.1331 57.5479 65.9575 56.9901 65.6301 56.4973C65.3026 56.0044 64.8353 55.6296 64.2281 55.3758C63.6208 55.122 62.9183 54.9951 62.1235 54.9951C61.4002 54.9951 60.7453 55.1161 60.153 55.3581C59.5636 55.6001 59.1141 55.9542 58.8045 56.4205C58.4979 56.8868 58.3432 57.3915 58.3432 57.9286C58.3432 58.4185 58.4682 58.8582 58.7212 59.2537C58.9712 59.6491 59.3552 59.9796 59.8672 60.2453C60.2631 60.4548 60.9537 60.6761 61.939 60.9093C62.9243 61.1454 63.5613 61.3165 63.85 61.4287C64.2995 61.5969 64.621 61.8064 64.8175 62.0573C65.0139 62.3081 65.1092 62.5973 65.1092 62.9338C65.1092 63.2702 65.008 63.5683 64.8055 63.8457C64.6031 64.1231 64.2936 64.3444 63.8798 64.5038C63.466 64.6632 62.9868 64.7428 62.445 64.7428C61.8348 64.7428 61.2841 64.6366 60.7959 64.4271C60.3078 64.2175 59.9476 63.9401 59.7154 63.5978C59.4832 63.2554 59.3344 62.8187 59.2719 62.2875L57.9324 62.4026C57.9532 63.1138 58.1497 63.7512 58.5218 64.3149C58.8938 64.8786 59.4118 65.3006 60.0667 65.581C60.7245 65.8613 61.5371 66.003 62.5105 66.003C63.2785 66.003 63.9661 65.8643 64.5793 65.5869C65.1925 65.3095 65.6628 64.9199 65.9903 64.4182C66.3177 63.9165 66.4814 63.3823 66.4814 62.8157C66.4814 62.2491 66.3326 61.7385 66.0349 61.3018C65.7372 60.862 65.2759 60.502 64.6508 60.2157L64.6478 60.2128Z" fill="#FF0214" /><path d="M76.1108 55.6887C75.316 55.2195 74.423 54.9834 73.4288 54.9834C71.9137 54.9834 70.6813 55.4821 69.7228 56.4826C68.7644 57.483 68.2881 58.8671 68.2881 60.6319C68.2881 61.5675 68.4935 62.4528 68.9043 63.2909C69.315 64.1291 69.9163 64.7901 70.7141 65.2741C71.5089 65.7581 72.4138 66.0001 73.4229 66.0001C74.3546 66.0001 75.2238 65.7817 76.0304 65.342C76.8371 64.9023 77.4593 64.2589 77.8968 63.406C78.3374 62.5532 78.5577 61.5881 78.5577 60.508C78.5577 59.4279 78.3493 58.4894 77.9296 57.6513C77.5128 56.8102 76.9056 56.158 76.1108 55.6858V55.6887ZM76.0572 63.6775C75.3666 64.4242 74.4855 64.796 73.4169 64.796C72.3483 64.796 71.494 64.4271 70.7974 63.6894C70.1009 62.9516 69.7526 61.9393 69.7526 60.6585C69.7526 59.056 70.1158 57.911 70.8391 57.2263C71.5654 56.5416 72.4287 56.1993 73.4348 56.1993C74.1432 56.1993 74.7802 56.3764 75.3518 56.7334C75.9203 57.0905 76.3519 57.5893 76.6466 58.2356C76.9413 58.8819 77.0901 59.6374 77.0901 60.505C77.0901 61.8744 76.7448 62.9339 76.0543 63.6775H76.0572Z" fill="#FF0214" /><path d="M80.7634 65.8172H82.1833V60.9832H87.2228V59.726H82.1833V56.4296H88.0057V55.1724H80.7634V65.8172Z" fill="#FF0214" /><path d="M89.3481 56.4296H92.8844V65.8172H94.3043V56.4296H97.8585V55.1724H89.3481V56.4296Z" fill="#FF0214" /><path d="M111.021 55.1724L109.337 62.0132C109.116 62.8838 108.938 63.657 108.801 64.3298C108.631 63.1523 108.351 61.8981 107.964 60.5612L106.425 55.1724H104.711L102.666 62.3614C102.618 62.5355 102.455 63.1907 102.184 64.3298C102.056 63.6098 101.904 62.8838 101.728 62.1519L100.094 55.1724H98.6355L101.484 65.8202H102.934L105.211 57.7074C105.309 57.3651 105.413 56.946 105.527 56.4591C105.559 56.6155 105.672 57.0316 105.863 57.7074L108.125 65.8202H109.494L112.438 55.1724H111.01H111.021Z" fill="#FF0214" /><path d="M116.463 55.1724L112.34 65.8202H113.849L115.028 62.5946H119.517L120.77 65.8202H122.389L117.996 55.1724H116.466H116.463ZM115.439 61.4466L116.618 58.3242C116.868 57.6514 117.058 56.9726 117.195 56.2909C117.362 56.8663 117.615 57.6041 117.957 58.4983L119.079 61.4466H115.439Z" fill="#FF0214" /><path d="M130.263 61.5056C130.066 61.3315 129.78 61.1544 129.405 60.9744C130.435 60.8327 131.197 60.5051 131.691 59.9857C132.186 59.4663 132.43 58.8318 132.43 58.0763C132.43 57.489 132.281 56.9549 131.983 56.4709C131.686 55.9869 131.287 55.6505 130.79 55.4586C130.292 55.2668 129.563 55.1724 128.608 55.1724H123.848V65.8202H125.268V61.0924H126.917C127.283 61.0924 127.548 61.1101 127.709 61.1426C127.929 61.1957 128.143 61.2901 128.358 61.4259C128.569 61.5617 128.81 61.7977 129.078 62.1371C129.346 62.4765 129.688 62.9664 130.102 63.6039L131.522 65.8202H133.308L131.441 62.9221C131.069 62.3555 130.676 61.8833 130.263 61.5056ZM128.322 59.8706H125.268V56.3469H128.667C129.462 56.3469 130.045 56.5092 130.414 56.8339C130.784 57.1585 130.968 57.5717 130.968 58.0763C130.968 58.4187 130.873 58.7374 130.682 59.0325C130.492 59.3247 130.215 59.5371 129.846 59.6729C129.48 59.8057 128.971 59.8736 128.322 59.8736V59.8706Z" fill="#FF0214" /><path d="M136.407 64.563V60.939H142.348V59.6877H136.407V56.4296H142.75V55.1724H134.987V65.8172H143V64.563H136.407Z" fill="#FF0214" /><path d="M91.7802 34.8005C91.7862 35.2313 91.7177 35.5117 91.6016 35.6976C91.7117 35.55 91.7802 35.37 91.7802 35.1723V13.7763C91.7802 13.5786 91.7117 13.3956 91.5986 13.248C91.7147 13.434 91.7862 13.7143 91.7802 14.1511C91.6969 21.0332 91.6969 27.9183 91.7802 34.8034V34.8005Z" fill="#FF0214" /><path d="M89.2916 36.0514H90.8931C91.024 36.0514 91.149 36.0219 91.2622 35.9688C90.902 36.0986 90.4079 35.9835 89.9614 36.0248C88.9731 36.1163 88.3688 36.016 88.4075 34.7057C88.5117 31.238 88.4432 27.7645 88.4432 24.2939C88.4432 20.8234 88.5147 17.58 88.4075 14.2304C88.3658 12.9113 88.985 12.8345 89.9673 12.9172C90.4138 12.9555 90.902 12.8463 91.2592 12.9732C91.149 12.9231 91.024 12.8936 90.896 12.8936H89.2946C88.8034 12.8936 88.4045 13.289 88.4045 13.776V35.172C88.4045 35.6589 88.8034 36.0543 89.2946 36.0543L89.2916 36.0514Z" fill="#FF0214" /></g><defs><clipPath id="clip0_432_24"><rect width="143" height="66" fill="white" /></clipPath></defs></svg>